<?xml version="1.0" encoding="UTF-8"?>
<svg width="64px" height="66px" viewBox="0 0 64 66" version="1.1" xmlns="http://www.w3.org/2000/svg" xmlns:xlink="http://www.w3.org/1999/xlink">
    <g id="page-1" stroke="none" stroke-width="1.25" fill="none" fill-rule="evenodd">
        <g id="sailboat" transform="translate(0.000000, 1.000000)" fill-rule="nonzero">
            <rect id="react" fill="#000000" opacity="0" x="0" y="0" width="64" height="64"></rect>
            <path d="M62.8085972,52.524 C62.6325972,52.076 62.2265972,51.762 61.7485972,51.702 L30.1385972,47.75 L30.1385972,2 C30.1385972,0.894 29.2445972,0 28.1385972,0 C27.0325972,0 26.1385972,0.894 26.1385972,2 L26.1385972,47.25 L2.57859719,44.304 C2.09659719,44.244 1.62059719,44.454 1.34059719,44.848 C1.06059719,45.244 1.02259719,45.762 1.23859719,46.198 L9.09259719,61.906 C9.73059719,63.19 11.0445972,64 12.4785972,64 L51.8805972,64 C53.3105972,64 54.6665972,63.366 55.5805972,62.268 L62.5965972,53.85 C62.9045972,53.478 62.9865972,52.97 62.8085972,52.524 Z" id="path" stroke="#FFFFFF"></path>
            <path d="M23.3905972,3.644 L24.1385972,2 L14.8665972,11.272 C6.71659719,19.422 2.13859719,30.474 2.13859719,42 L24.1385972,44 C17.8125972,31.35 17.5385972,16.52 23.3905972,3.644 Z" id="path" stroke="#FFFFFF"></path>
            <path d="M48.1385972,48 C48.1385972,36.56 43.2005972,25.68 34.5925972,18.146 L32.1385972,16 L32.7905972,17.738 C36.2225972,26.89 35.9905972,37.016 32.1385972,46 L48.1385972,48 Z" id="path" stroke="#FFFFFF"></path>
        </g>
    </g>
</svg>